<svg width="41" height="15" viewBox="0 0 41 15" fill="none" xmlns="http://www.w3.org/2000/svg">
<path d="M7.49986 3.62739V3.12739H6.99986H1.06235L3.23527 0.5H16.9373L14.7644 3.12739H10.9998H10.4998V3.62739V6.92689L7.49986 12.2209V3.62739Z" fill="black" stroke="#0690F3"/>
<path d="M16 5.5H12.5V8.5M16 11.5H12.5V8.5M12.5 8.5H15" stroke="black" stroke-linecap="round" stroke-linejoin="round"/>
<path d="M17.5 5.5L19.5 8.5M21.5 11.5L19.5 8.5M21.5 5.5L19.5 8.5M17.5 11.5L19.5 8.5" stroke="black" stroke-linecap="round" stroke-linejoin="round"/>
<path d="M30 8.02793V8.5V8.97207C30 10.1518 29.1686 11.168 28.0123 11.4018C27.6914 11.4666 27.3594 11.467 27.0383 11.4034C25.8575 11.1697 25 10.1326 25 8.92899V8.5V8.07101C25 6.86736 25.8575 5.83027 27.0383 5.59658C27.3594 5.53303 27.6914 5.53339 28.0123 5.59823C29.1686 5.83195 30 6.84822 30 8.02793Z" stroke="black"/>
<circle cx="32" cy="11" r="1" fill="#0690F3"/>
<path d="M34.5 5.5V11.5" stroke="#0690F3" stroke-linecap="round"/>
<path d="M35.0011 2.50338C35.2766 2.78015 35.2756 3.22786 34.9989 3.50338C34.723 3.77802 34.277 3.77802 34.0011 3.50338C33.7244 3.22786 33.7234 2.78015 33.9989 2.50338C34.2753 2.22574 34.7247 2.22574 35.0011 2.50338Z" fill="black" stroke="#0690F3" stroke-width="0.5" stroke-linecap="round"/>
<path d="M36.5 11.5L37.1667 9.5M40.5 11.5L39.8333 9.5M39.8333 9.5L38.5095 5.52846C38.5064 5.51934 38.4936 5.51934 38.4905 5.52846L37.1667 9.5M39.8333 9.5H37.1667" stroke="#0690F3" stroke-linecap="round"/>
<path d="M23.5 11.5V3.5M23.5 3.5H20M23.5 3.5H27" stroke="black" stroke-linecap="round"/>
<path d="M7.85754 14.5L10.4995 9.83782V14.5H7.85754Z" fill="black" stroke="#0690F3" stroke-linecap="round"/>
</svg>
